<svg version="1.2" xmlns="http://www.w3.org/2000/svg" viewBox="0 0 1024 380" width="1024" height="380">
	<style>
		.s0 { fill: #373536 } 
		.s1 { fill: #d50100 } 
		.s2 { fill: #3b3d92 } 
	</style>
	<g id="Layer 1 copy">
		<path id="Path 0" class="s0" d="m511 52.62c-4.68 1.38-12.03 4.39-16.35 6.69-4.54 2.42-11.09 7.18-15.5 11.27-4.21 3.89-9.79 10.19-12.4 14-4.7 6.86-4.82 7.22-13.68 43.42-4.91 20.07-12.31 50.22-16.44 67-4.14 16.78-12.3 49.85-18.15 73.5-9.75 39.43-10.6 43.62-10.22 50.5 0.31 5.71 1.1 8.9 3.32 13.39 1.72 3.47 5.17 7.99 8.42 11.01 3.92 3.65 7.66 5.96 13 8.01 6.4 2.47 9.33 2.96 20 3.37 9.31 0.36 14.41 0.07 20-1.14 4.13-0.9 11.1-3.35 15.5-5.45 4.4-2.1 10.48-5.64 13.5-7.86 3.02-2.22 8.43-7.15 12-10.94 3.58-3.8 8.28-9.61 10.45-12.9 2.17-3.29 5.2-8.8 6.75-12.24 1.54-3.44 4.77-11.99 7.18-19 2.41-7.01 6.67-21.75 9.48-32.75 2.81-11 5.11-20.34 5.12-20.75 0.01-0.41-12.69-0.75-28.23-0.74h-28.25c-12.11 47.66-16.49 63.4-17.56 65.74-1.07 2.34-3.18 5.02-4.69 5.95-1.51 0.94-4.1 1.63-5.75 1.55-1.65-0.08-3.57-0.96-4.27-1.95-0.69-0.99-1.26-3.04-1.25-4.55 0.01-1.51 3-15.24 6.64-30.5 3.64-15.26 13.51-55.87 21.93-90.25 8.41-34.37 16.18-64.53 17.25-67 1.08-2.47 3.17-5.62 4.66-7 1.77-1.64 3.86-2.5 6.07-2.5 1.85 0 3.95 0.59 4.67 1.3 0.81 0.81 1.21 3.27 1.06 6.5-0.14 2.86-2.53 14.65-5.33 26.2-2.79 11.55-6.42 26.63-8.06 33.5-1.64 6.88-3.18 13.29-3.42 14.25-0.42 1.64 1.4 1.75 28.05 1.75h28.5c8.41-35.26 11.77-50 12.89-55.5 1.13-5.5 2.45-14.5 2.94-20 0.5-5.5 0.55-13.37 0.11-17.5-0.44-4.12-1.53-9.52-2.42-12-0.89-2.47-2.67-6.3-3.96-8.5-1.28-2.2-4.64-6.14-7.45-8.75-2.81-2.61-7.02-5.62-9.36-6.69-2.34-1.07-6.95-2.65-10.25-3.51-3.78-0.98-10.07-1.54-17-1.5-8.7 0.04-12.78 0.58-19.5 2.57zm415.69 7.13c-0.75 2.61-4.48 17.25-8.28 32.52l-6.91 27.77-14.5-0.04c-3.04 12.01-5.04 20.22-6.4 26-1.36 5.78-6.3 26.03-10.98 45-4.68 18.97-12.83 52.05-18.12 73.5-5.29 21.45-12.06 49.01-15.06 61.25-2.99 12.24-5.44 22.48-5.44 22.75 0 0.27 21.92 0.39 48.71 0.25l48.72-0.25c1.23-4.65 4.51-17.93 8.09-32.5 3.57-14.57 6.5-26.5 6.49-26.5 0 0-9.01 0.11-20.01 0.25-15.46 0.19-20-0.03-20.02-1-0.01-0.69 2.94-13.18 6.54-27.75 3.61-14.57 6.99-28.19 7.52-30.25l0.96-3.75 34.24-0.5c10.6-42.62 13.7-55.34 13.72-55.75 0.02-0.41-7.38-0.75-16.46-0.75-9.08 0-16.66-0.34-16.85-0.75-0.2-0.41 2.61-12.79 6.25-27.51l6.6-26.77c28.29 0.02 36.52-0.08 36.53-0.22 0.02-0.14 3.29-13.43 7.25-29.54 3.97-16.11 6.99-29.51 6.72-29.78-0.27-0.27-17.92-0.47-39.22-0.46l-38.72 0.03zm-649.96-3.91c-0.21 0.46-2.04 12.72-4.08 27.25-2.04 14.52-5.71 40.81-8.15 58.41-2.44 17.6-7.59 55.4-11.44 84-3.85 28.6-8.6 63.93-10.56 78.5-1.96 14.57-4 29.2-4.52 32.5-0.53 3.3-0.97 7.46-0.97 9.25l-0.01 3.25 85.36-0.5c4.52-13.95 13.86-41.62 23.67-70.5 9.8-28.87 22.99-67.57 29.31-86 6.32-18.43 17.34-50.6 24.49-71.5 7.14-20.9 15.06-43.96 17.58-51.25 3.36-9.68 4.26-13.39 3.34-13.76-0.69-0.29-14.07-0.4-29.75-0.25l-28.5 0.26c-2.87 8.53-6.53 20-9.99 31-3.46 11-9.99 31.7-14.51 46-4.52 14.3-12.84 41.07-18.5 59.5-5.66 18.43-11.11 36.43-12.11 40-1 3.57-1.98 5.82-2.16 5-0.18-0.82 0.81-7.57 2.19-15 1.39-7.43 5.22-28.8 8.52-47.5 3.29-18.7 9.15-52.79 13.02-75.75 3.88-22.96 6.82-42.2 6.54-42.75-0.31-0.63-11.15-1-29.45-1-15.92 0-29.12 0.38-29.32 0.84zm150.52 0.41c-0.53 0.69-2.8 6.65-5.03 13.25-2.23 6.6-12.61 36.98-23.06 67.5-10.45 30.53-22.67 66.08-27.14 79-5.15 14.86-10.34 32.51-14.12 48-3.28 13.48-9.13 37.32-13 53-3.86 15.68-7.22 29.29-7.46 30.25-0.41 1.64 1.42 1.75 28.06 1.75h28.5c1.4-5.81 8.59-35.18 16.88-69 8.29-33.82 20.51-83.55 27.16-110.5 6.64-26.95 15.61-63.4 19.93-81 4.32-17.6 7.67-32.34 7.44-32.75-0.22-0.41-8.68-0.75-18.8-0.75-13.52 0-18.64 0.33-19.36 1.25zm167.01 0c-0.53 0.69-2.44 7.1-4.24 14.25-2.66 10.51-3.44 16.07-4.09 29-0.5 9.88-1.78 20.97-3.35 29-1.39 7.15-5.13 23.69-8.31 36.75l-5.77 23.76c-6.81-0.01-7.59 0.4-8.03 2.24-0.29 1.24-2.24 9.23-4.34 17.75-2.1 8.53-3.66 15.84-3.47 16.25 0.19 0.41 1.69 0.75 3.34 0.75 1.65 0 3 0.34 2.99 0.75-0.01 0.41-2.52 10.65-5.57 22.75-3.05 12.1-7.79 28.75-10.54 37-2.76 8.25-7.01 19.05-9.47 24-3.08 6.21-5.54 13.42-7.93 23.25-1.91 7.84-3.48 14.48-3.48 14.75 0 0.27 21.91 0.39 48.7 0.25l48.69-0.25c10.47-42.62 13.64-55.82 13.81-56.82 0.28-1.72-0.87-1.82-19.7-1.74l-20 0.09c7.5-31.41 10.89-45.48 12.37-51.53l2.69-11 34.44-0.5c1.51-5.81 4.45-17.85 7.51-30.5 3.06-12.65 5.78-23.79 6.03-24.75 0.43-1.62-0.84-1.75-16.54-1.75-9.35 0-17-0.22-17-0.5 0-0.27 2.47-10.74 5.49-23.25 3.02-12.51 6.06-24.68 6.75-27.03l1.26-4.28c36.37 0.06 36.51 0.04 37.02-2.19 0.29-1.24 3.44-14.17 7.01-28.75 3.58-14.57 6.49-27.06 6.49-27.75-0.01-0.98-9.87-1.25-45.91-1.25-35.52 0-46.1 0.28-46.85 1.25zm98.43-0.52c-0.24 0.42-3.87 15.06-8.07 32.52l-7.62 31.75c-6.2 0-7.99 0.11-7.99 0.25 0 0.14-2.24 9.25-4.98 20.25-2.75 11-5 21.01-5.01 22.25-0.01 1.59 0.57 2.25 1.98 2.25 1.1 0 2 0.34 1.99 0.75-0.01 0.41-3.18 13.8-7.04 29.75-3.87 15.95-7.46 30.46-7.99 32.25-0.75 2.54-1.56 3.3-3.71 3.5-2.73 0.25-2.79 0.44-8.92 24.75-3.39 13.48-6.2 25.51-6.25 26.75-0.07 2.07 0.36 2.25 5.42 2.25 4.76 0 5.44 0.24 5.02 1.75-0.26 0.96-3.63 14.57-7.49 30.25-3.85 15.68-7.01 29.29-7.02 30.25-0.01 1.6 1.5 1.75 17.74 1.76l17.75 0.01c23.25-93.8 30.34-121.03 30.75-121.02 0.41 0 0.53 2.14 0.25 4.75-0.27 2.61-0.95 24.55-1.5 48.75-0.55 24.2-1.34 49.29-1.75 55.76l-0.75 11.75 50.5-0.01c1.48-5.81 3.03-12.23 4.4-18 1.37-5.77 5.18-21.52 8.48-35 3.3-13.48 15.9-64.78 27.99-114 12.1-49.22 23.94-97.73 26.32-107.79 2.37-10.05 4.09-18.5 3.81-18.77-0.27-0.27-10.74-0.48-23.25-0.47-22.62 0.03-22.75 0.04-23.74 2.28-0.55 1.24-6.44 24.53-13.1 51.75-6.66 27.23-13.41 54.45-15 60.5l-2.89 11c0.77-43.4 1.03-71.52 1.09-90.5l0.09-34.5c-30.27-0.42-39.26-0.19-39.51 0.23zm121.38 3.02c-0.55 2.06-3.71 14.89-7.03 28.5-3.32 13.61-6.04 25.43-6.04 26.25 0 1.22 1.65 1.5 8.75 1.52l8.75 0.02c-7.15 29.81-13.34 55.11-18.36 75.46-5.02 20.35-15.44 62.65-23.17 94-7.72 31.35-14.36 58.7-14.75 60.78l-0.72 3.79 56.93-0.57c1.2-4.65 3.83-15.45 6.61-27 2.78-11.55 6.83-28.2 8.98-37 2.16-8.8 11.08-45.25 19.83-81 8.75-35.75 17.2-70.29 18.78-76.76l2.87-11.76c30.9 0.02 32.55-0.15 32.95-1.73 0.24-0.96 3.39-13.56 7-28 3.6-14.44 6.55-27.15 6.55-28.25 0-1.98-0.66-2-53.47-2h-53.46zm-651.07 57.99c3.57 0.2 8.97 0.19 12 0 3.02-0.2 0.1-0.36-6.5-0.36-6.6 0-9.08 0.17-5.5 0.36z"/>
		<path id="Path 1" class="s1" d="m77.3 56.25c-0.44 0.69-2.28 6.88-4.08 13.75-1.81 6.88-4.18 16.1-5.27 20.5-1.08 4.4-2.75 11.74-3.71 16.3-1.29 6.15-1.44 8.49-0.59 9 0.64 0.39 6.94 0.83 14 0.98 7.07 0.15 13.07 0.51 13.35 0.79 0.28 0.28-1.66 9.38-4.31 20.22-2.64 10.84-5.9 23.76-7.24 28.71-1.34 4.95-2.44 9.79-2.44 10.75-0.01 0.96-0.9 4.56-1.98 8-1.08 3.44-2.2 7.6-2.48 9.25-0.28 1.65-2.16 9.75-4.17 18-2.01 8.25-5 20.18-6.66 26.5-1.65 6.32-3.6 14.2-4.33 17.5-0.72 3.3-4.51 18.38-8.41 33.5-3.89 15.13-7.49 29.3-7.99 31.5-0.5 2.2-1.36 6.25-1.92 9-0.56 2.75-1.47 6.8-2.02 9-0.55 2.2-1.01 5.01-1.03 6.25l-0.02 2.25h58c2.51-8.91 3.51-11.95 3.84-12.5 0.33-0.55 0.71-1.68 0.84-2.5 0.12-0.82 0.95-5.1 1.84-9.5 0.89-4.4 2.27-9.35 3.07-11 0.8-1.65 1.44-4.24 1.43-5.75-0.01-1.51 0.61-4.89 1.37-7.5 0.77-2.61 4.19-16.45 7.61-30.75 3.42-14.3 6.85-28.03 7.62-30.5 0.77-2.47 1.39-5.18 1.38-6-0.02-0.82 1.72-7.8 3.87-15.5 2.15-7.7 5.75-21.88 8.02-31.5 2.26-9.63 4.97-20.88 6.03-25 1.05-4.13 3.56-14.03 5.57-22 2.02-7.97 3.98-16.08 4.36-18l0.69-3.5c37.47 0 38.7-0.12 40.06-2 0.79-1.1 1.43-2.9 1.43-4-0.01-1.1 1.1-6.72 2.45-12.5 1.36-5.78 4.05-17.36 5.99-25.75 1.94-8.39 3.31-15.7 3.03-16.25-0.33-0.65-22.48-1-63.45-1-49.27 0-63.13 0.27-63.75 1.25z"/>
		<path id="Path 2" class="s2" d="m229.22 117.1c-3.81 1.17-8.64 3.74-12.47 6.65-3.44 2.62-8.5 7.78-11.25 11.48-2.75 3.7-5.13 6.18-5.3 5.5-0.16-0.68 0.25-2.58 0.91-4.23 0.67-1.65 1.14-3.34 1.05-3.75-0.09-0.41 0.52-2.66 1.36-5 0.84-2.34 1.51-5.04 1.5-6-0.02-1.62-1.91-1.75-25.27-1.78l-25.25-0.02c-10.42 41.5-17.99 72-23.53 94.55-5.55 22.55-13.67 55.63-18.06 73.5-4.38 17.88-9.37 37.9-11.08 44.5-1.71 6.6-2.82 12.79-2.47 13.75 0.59 1.6 2.74 1.75 25.64 1.75h25c1.46-5.81 8.18-32.48 15.88-63 7.7-30.52 15.13-59.1 16.51-63.5 1.38-4.4 3.79-9.8 5.37-12 1.57-2.2 5.08-5.46 7.8-7.24 3.52-2.32 6.95-3.55 11.94-4.31 3.85-0.58 7.61-1.15 8.36-1.25 0.9-0.13 3.02-6.85 6.21-19.7 2.67-10.72 7.12-28.72 9.9-40 2.78-11.27 4.7-20.79 4.27-21.15-0.44-0.35-3.6 0.21-7.02 1.25z"/>
	</g>
</svg>