<svg version="1.2" xmlns="http://www.w3.org/2000/svg" viewBox="0 0 2000 1000" width="2000" height="1000">
	<style>
		.s0 { fill: #ffffff } 
		.s1 { fill: #6e6e6e } 
	</style>
	<g id="grupo">
		<path id="Path 0" fill-rule="evenodd" class="s0" d="m730 171h64v179l9.25-9.28c5.09-5.1 12.85-11.79 17.25-14.86 4.4-3.08 11.15-7.19 15-9.15 3.85-1.95 8.8-4.29 11-5.18 2.2-0.89 8.05-2.69 13-4 4.95-1.3 12.83-2.92 17.5-3.59 5.5-0.78 14.32-1.01 25-0.64 11.02 0.39 19.82 1.28 26.5 2.7 5.5 1.17 13.94 3.44 18.75 5.06 4.81 1.62 12.69 4.92 17.5 7.35 4.81 2.42 12.13 6.79 16.25 9.71 4.13 2.92 11.05 8.7 15.38 12.84 4.34 4.15 10.7 11.14 14.14 15.54 3.45 4.4 8.5 11.6 11.23 16 2.73 4.4 6.64 11.6 8.7 16 2.06 4.4 5.24 12.27 7.06 17.5 1.82 5.23 4.23 13.1 5.34 17.5 1.12 4.4 2.71 12.05 3.55 17 0.83 4.95 2.02 13.73 2.63 19.5 0.62 5.77 1.13 19.27 1.12 30 0 10.73-0.5 24.45-1.11 30.5-0.61 6.05-1.99 15.95-3.09 22-1.09 6.05-2.88 14.26-3.97 18.25-1.09 3.99-1.64 7.25-1.23 7.26 0.41 0.01 13.8-2.04 29.75-4.55 15.95-2.51 29.08-4.42 29.18-4.26 0.1 0.17 0.93 3.9 1.85 8.3 0.92 4.4 2.98 11.6 4.59 16 1.61 4.4 4.15 10.1 5.65 12.68 1.5 2.57 4.76 7.11 7.23 10.09 2.47 2.98 7.2 7.57 10.5 10.2 3.3 2.63 9.04 6.29 12.75 8.15 3.71 1.86 10.46 4.45 15 5.77 4.54 1.31 12.53 2.95 17.75 3.65 6.39 0.86 15.23 1.08 27 0.67 11.36-0.39 20.66-1.27 26.5-2.52 4.95-1.06 12.15-3.18 16-4.71 3.85-1.53 9.47-4.45 12.5-6.47 3.03-2.03 7.23-5.68 9.34-8.1 2.11-2.43 4.88-6.43 6.14-8.91 1.27-2.48 3.04-6.98 3.94-10 0.94-3.19 1.65-9.28 1.69-14.5 0.05-7.05-0.43-10.3-2.22-15-1.25-3.3-4.33-8.7-6.84-12-2.51-3.3-6.81-7.49-9.56-9.31-2.74-1.82-7.91-4.21-11.49-5.31-3.58-1.11-16.85-4.71-29.5-8.01-12.65-3.3-30.42-8.04-39.5-10.52-9.08-2.48-21.9-6.1-28.5-8.05-6.6-1.95-17.4-5.56-24-8.02-6.6-2.46-16.72-6.71-22.5-9.45-5.78-2.73-13.42-6.92-17-9.29-3.58-2.38-9.54-7.52-13.25-11.43-3.71-3.91-8.26-9.47-10.11-12.36-1.85-2.89-4.55-7.61-6-10.5-1.45-2.89-3.71-8.51-5.02-12.5-1.3-3.99-2.93-12.2-3.61-18.25-0.75-6.67-0.95-14.35-0.52-19.5 0.4-4.68 1.73-12.55 2.97-17.5 1.24-4.95 3.94-12.38 6-16.5 2.06-4.13 5.93-10.65 8.59-14.5 2.66-3.85 7.26-9.7 10.23-13 2.98-3.3 8.74-8.3 12.81-11.12 4.08-2.82 10.33-6.59 13.91-8.38 3.58-1.79 11-4.72 16.5-6.5 5.5-1.79 14.72-4.18 20.5-5.32 5.78-1.14 15.45-2.6 21.5-3.25 6.62-0.7 18.76-0.96 30.5-0.66 10.72 0.28 24.67 1.26 31 2.18 6.33 0.92 16.79 3 23.25 4.61 6.46 1.62 15.24 4.33 19.5 6.03 4.26 1.71 10.67 4.83 14.25 6.94 3.58 2.11 8.55 5.56 11.06 7.66 2.51 2.09 7.17 6.74 10.37 10.31 3.2 3.57 7.65 9.2 9.89 12.5 2.23 3.3 5.98 10.05 8.32 15 2.34 4.95 5.63 14.29 7.31 20.75 1.68 6.46 3.05 12.99 3.06 17.25l-30.76 3.78c-16.91 2.08-30.81 3.65-30.88 3.5-0.08-0.15-1.03-3.88-2.13-8.28-1.1-4.4-3.51-11.14-5.37-14.98-2.09-4.33-5.83-9.58-9.87-13.85-3.58-3.78-8.97-8.37-12-10.2-3.03-1.83-9.55-4.68-14.5-6.34-4.95-1.66-12.83-3.49-17.5-4.08-4.67-0.58-14.35-1.05-21.5-1.05-7.15 0-16.83 0.47-21.5 1.05-4.67 0.58-12.1 1.96-16.5 3.07-4.4 1.11-11.15 3.52-15 5.35-3.85 1.84-9.26 5.52-12.01 8.19-2.76 2.66-6.36 7.54-8 10.84-2.82 5.66-2.99 6.69-2.99 18 0 10 0.34 12.75 2.06 16.5 1.14 2.48 4.06 6.43 6.5 8.78 2.44 2.35 7.81 6.02 11.94 8.14 4.12 2.12 11.78 5.46 17 7.41 5.22 1.95 18.72 6.05 30 9.12 11.28 3.07 30.63 8.25 43 11.51 12.37 3.27 28.13 7.57 35 9.55 6.87 1.99 16.33 5.2 21 7.13 4.67 1.93 11.87 5.32 16 7.53 4.12 2.21 10.42 6.11 14 8.66 3.58 2.56 9.42 7.4 13 10.76 3.58 3.37 8.4 9 10.71 12.51 2.32 3.52 5.32 9.1 6.67 12.4 1.35 3.3 3.44 10.73 4.64 16.5 1.88 9.06 2.11 12.69 1.69 26.5-0.39 12.62-1.01 18-2.96 25.5-1.35 5.23-4.31 13.33-6.57 18-2.27 4.67-6.04 11.27-8.4 14.65-2.35 3.38-6.33 8.33-8.84 11-2.52 2.67-7.02 7.04-10 9.71-2.99 2.68-8.59 6.7-12.44 8.93-3.85 2.24-11.28 5.96-16.5 8.28-5.22 2.31-14.22 5.8-20 7.74-5.78 1.94-15 4.43-20.5 5.53-5.5 1.1-15.63 2.55-22.5 3.22-7.84 0.76-18.65 0.97-29 0.58-10.33-0.4-21.74-1.56-30.5-3.09-7.7-1.36-18.05-3.63-23-5.07-4.95-1.43-13.28-4.47-18.5-6.75-5.22-2.28-14-7.15-19.5-10.81-5.5-3.65-13.1-9.75-16.89-13.53-3.78-3.79-9.42-10.27-12.51-14.39-3.1-4.13-7.94-12-10.75-17.5-2.82-5.5-6.33-13.38-7.81-17.5-1.48-4.13-3.69-11.55-7.16-25.5l-2.79 8c-1.54 4.4-5.19 12.95-8.12 19-2.94 6.05-7.68 14.6-10.53 19-2.86 4.4-8.01 11.6-11.45 16-3.44 4.4-9.11 10.74-12.62 14.08-3.5 3.34-9.97 8.74-14.37 12-4.41 3.26-11.16 7.58-15 9.6-3.85 2.03-11.05 5.25-16 7.16-4.95 1.91-13.27 4.38-18.5 5.5-5.23 1.11-13.89 2.51-19.25 3.09-5.36 0.59-13.24 1.07-17.5 1.07-4.26 0-11.8-0.5-16.75-1.1-4.95-0.61-13.05-2.12-18-3.37-4.95-1.24-12.83-3.92-17.5-5.95-4.67-2.02-12.33-6.22-17-9.33-4.67-3.11-12.59-9.72-17.58-14.7-4.99-4.98-10.39-11.04-14.92-17.91l-0.5 43.36h-60zm125 189.92c-3.02 1.16-8.42 3.85-12 5.99-3.58 2.13-9.65 6.78-13.5 10.33-3.85 3.56-9.85 10.47-13.34 15.36-3.49 4.9-8.31 12.95-10.71 17.9-2.39 4.95-5.53 12.6-6.97 17-1.44 4.4-3.71 13.18-5.03 19.5-1.33 6.32-2.94 17.35-3.57 24.5-0.7 7.81-0.92 20.18-0.55 31 0.33 9.9 1.09 22.05 1.67 27 0.59 4.95 1.98 13.5 3.1 19 1.11 5.5 3.37 14.05 5.03 19 1.65 4.95 4.89 12.82 7.19 17.5 2.3 4.67 6.5 11.64 9.33 15.5 2.84 3.85 7.56 9.06 10.5 11.58 2.94 2.52 8.05 6.43 11.35 8.68 3.3 2.26 8.48 5.24 11.5 6.64 3.02 1.39 9.1 3.49 13.5 4.65 4.53 1.2 12.77 2.36 19 2.67 6.6 0.34 14.4 0.06 19.5-0.68 4.67-0.68 12.33-2.64 17-4.34 4.67-1.71 11.86-5.38 15.97-8.15 4.11-2.78 9.92-7.3 12.9-10.05 2.98-2.75 7.3-7.48 9.6-10.5 2.29-3.02 5.57-7.98 7.29-11 1.71-3.02 5.19-10.67 7.73-17 2.54-6.33 5.92-16.45 7.5-22.5 1.59-6.05 3.62-15.5 4.53-21 0.9-5.5 1.99-15.4 2.41-22 0.42-6.6 0.41-18.98-0.03-27.5-0.44-8.52-1.07-17.3-1.41-19.5-0.33-2.2-1.53-8.73-2.65-14.5-1.12-5.77-3.4-14.77-5.06-20-1.66-5.23-4.9-13.55-7.21-18.5-2.31-4.95-5.92-11.7-8.02-15-2.11-3.3-5.91-8.42-8.44-11.37-2.54-2.96-7.31-7.4-10.61-9.87-3.3-2.47-8.92-5.96-12.5-7.76-3.58-1.8-8.3-3.79-10.5-4.43-2.2-0.63-7.6-1.81-12-2.61-4.4-0.8-13.17-1.42-19.5-1.37-7.22 0.05-14.48 0.75-19.5 1.9-4.4 0.99-10.48 2.76-13.5 3.93zm-652.5-57.77c9.23-0.09 18.46 0.43 24 1.34 4.95 0.81 13.27 2.62 18.5 4.01 5.22 1.39 14.45 4.98 20.5 7.97 6.05 2.99 14.82 8.21 19.5 11.61 4.68 3.4 12.89 10.62 28 25.92v-43h57l-0.29 177.25c-0.27 161.91-0.45 178.46-2.05 191.25-0.96 7.7-2.84 19.4-4.16 26-1.33 6.6-3.58 16.05-5 21-1.42 4.95-3.75 12.15-5.17 16-1.43 3.85-4.6 11.05-7.04 16-2.44 4.95-6.54 12.15-9.11 16-2.57 3.85-7.6 10.11-11.18 13.91-3.57 3.8-9.65 9.26-13.5 12.14-3.85 2.87-10.83 7.14-15.5 9.48-4.68 2.34-11.43 5.35-15 6.69-3.58 1.34-10.77 3.5-16 4.8-5.23 1.29-14.45 3.17-20.5 4.17-8.77 1.44-16.67 1.81-39 1.81-18.36 0-31.1-0.47-37-1.35-4.95-0.74-13.5-2.4-19-3.68-5.5-1.28-14.05-3.76-19-5.52-4.95-1.75-12.6-4.99-17-7.2-4.4-2.21-10.7-5.86-14-8.11-3.3-2.25-9.09-7.03-12.86-10.62-3.77-3.58-8.77-9.22-11.11-12.52-2.34-3.3-5.28-8.02-6.54-10.5-1.25-2.48-3.52-8.1-5.03-12.5-1.52-4.4-3.48-12.27-4.36-17.5-0.89-5.23-1.61-13.89-1.61-19.25 0.01-9.56 0.05-9.74 2.26-9.34 1.24 0.22 14.4 2.09 29.25 4.15 14.85 2.06 27.32 4.01 27.72 4.34 0.39 0.33 1.65 4.2 2.8 8.6 1.14 4.4 3.74 11.12 5.78 14.93 2.03 3.8 5.5 8.93 7.7 11.4 2.2 2.46 6.7 6.38 10 8.72 3.3 2.33 8.81 5.41 12.25 6.84 3.44 1.44 9.96 3.56 14.5 4.71 6.35 1.62 12.51 2.23 26.75 2.62 14.4 0.4 21.05 0.13 30-1.2 6.32-0.94 15.32-3.06 20-4.72 4.68-1.67 10.3-3.94 12.5-5.05 2.2-1.12 6.48-3.71 9.5-5.76 3.02-2.05 7.75-5.74 10.5-8.19 3.27-2.91 6.44-7.21 9.15-12.38 2.28-4.36 5.32-11.63 6.75-16.17 1.43-4.54 3.49-13.31 4.57-19.5 1.09-6.19 2.45-15.98 3.04-21.75 0.58-5.77 1.36-19.05 2.39-48.5l-7.45 7.58c-4.1 4.17-10.83 10.1-14.95 13.17-4.13 3.08-10.76 7.43-14.75 9.67-3.99 2.24-10.51 5.38-14.5 6.96-3.99 1.58-10.63 3.79-14.75 4.9-4.13 1.11-11.55 2.57-16.5 3.24-5.68 0.77-15.45 1.03-26.5 0.72-12.13-0.35-20.41-1.13-27-2.54-5.23-1.12-13.33-3.29-18-4.82-4.68-1.54-13-5.07-18.5-7.86-5.5-2.79-13.15-7.3-17-10.03-3.85-2.73-11.22-9.02-16.38-13.98-5.16-4.95-11.95-12.38-15.1-16.51-3.16-4.12-7.67-10.65-10.05-14.5-2.37-3.85-6.3-11.05-8.74-16-2.44-4.95-5.54-11.92-6.88-15.5-1.34-3.58-3.74-11-5.32-16.5-1.59-5.5-3.82-15.62-4.97-22.5-1.15-6.87-2.56-19.92-3.12-29-0.73-11.65-0.71-21.64 0.07-34 0.6-9.62 2.01-22.9 3.13-29.5 1.12-6.6 3.38-16.95 5.02-23 1.64-6.05 4.47-14.82 6.28-19.5 1.81-4.68 4.96-11.87 7-16 2.04-4.12 5.33-10.2 7.32-13.5 1.99-3.3 6.07-9.37 9.07-13.5 3-4.12 9.78-11.78 15.06-17 5.29-5.23 12.98-11.82 17.11-14.65 4.12-2.84 11.77-7.28 17-9.88 5.22-2.6 14-6.2 19.5-7.98 5.5-1.79 14.27-3.98 19.5-4.86 5.22-0.89 10.85-1.77 12.5-1.97 1.65-0.2 9.75-0.43 18-0.51zm-25.5 57.25c-4.13 1.45-10.65 4.63-14.5 7.06-3.85 2.44-9.45 6.59-12.44 9.24-3 2.64-7.95 8.18-11.02 12.3-3.06 4.13-7.88 12-10.7 17.5-2.83 5.5-6.55 14.27-8.29 19.5-1.73 5.23-4.01 13.77-5.07 19-1.06 5.23-2.45 14.23-3.08 20-0.74 6.68-0.95 18.87-0.58 33.5 0.33 13.27 1.24 27.23 2.17 33 0.87 5.5 2.53 13.83 3.68 18.5 1.15 4.67 3.32 11.88 4.83 16 1.51 4.13 3.99 9.98 5.52 13 1.52 3.02 3.93 7.3 5.34 9.5 1.4 2.2 5.05 6.88 8.1 10.41 3.05 3.52 8.01 8.3 11.04 10.62 3.02 2.31 8.65 5.78 12.5 7.69 3.85 1.92 8.35 3.99 10 4.6 1.65 0.6 5.92 1.83 9.5 2.72 3.57 0.89 11 1.93 16.5 2.31 5.5 0.38 14.5 0.39 20 0.03 5.5-0.35 12.92-1.46 16.5-2.44 3.57-0.99 9.42-3.1 13-4.7 3.57-1.59 9.42-4.84 13-7.21 3.57-2.37 9.2-7.18 12.5-10.69 3.3-3.51 7.64-8.85 9.65-11.86 2-3.01 5.47-8.85 7.7-12.98 2.23-4.12 5.61-11.77 7.51-17 1.89-5.23 4.36-13.1 5.49-17.5 1.12-4.4 2.82-13.17 3.77-19.5 1.21-7.95 1.75-17.67 1.76-31.5 0.01-14.11-0.5-23.39-1.74-31.5-0.96-6.32-2.6-14.87-3.64-19-1.04-4.12-3.1-10.87-4.57-15-1.48-4.12-4.49-11.1-6.7-15.5-2.2-4.4-5.94-10.93-8.3-14.5-2.35-3.57-6.9-9.39-10.11-12.92-3.2-3.53-8.75-8.63-12.32-11.33-3.58-2.7-9.65-6.42-13.5-8.26-3.85-1.85-10.6-4.34-15-5.54-6.12-1.67-11.52-2.27-23-2.53q-15-0.35-21.5 1c-3.58 0.74-9.88 2.53-14 3.98z"/>
		<path id="Path 1" fill-rule="evenodd" class="s1" d="m1588.5 433.5l0.5 242.5h-27v-12l-7.25 4.51c-3.99 2.49-10.63 5.6-14.75 6.92-4.13 1.31-8.85 2.7-10.5 3.07-1.65 0.37-7.95 1.03-14 1.48-6.05 0.44-15.72 0.41-21.5-0.07-5.78-0.48-13.42-1.73-17-2.78-3.58-1.05-8.53-2.79-11-3.86-2.47-1.07-7.2-3.66-10.5-5.77-3.3-2.1-8.42-6.11-11.39-8.91-2.96-2.8-7.21-7.57-9.44-10.59-2.23-3.02-5.3-8.2-6.84-11.5-1.53-3.3-3.78-9.6-4.99-14-2.03-7.33-2.22-10.31-2.26-35.5-0.05-25.52 0.11-28.15 2.24-36.5 1.27-4.95 3.9-12.15 5.85-16 1.96-3.85 5.64-9.68 8.19-12.96 2.55-3.27 7.11-7.93 10.14-10.34 3.03-2.41 9.1-6.13 13.5-8.27 4.4-2.13 10.7-4.57 14-5.41 3.3-0.85 10.05-2.04 15-2.65 5.25-0.65 14.21-0.86 21.5-0.49 6.88 0.34 16.1 1.49 20.5 2.54 4.4 1.05 10.47 2.99 13.5 4.32 3.03 1.32 8.09 4.06 17 9.76l-0.17-38.33c-0.09-21.09 0.22-38.65 0.7-39.03 0.47-0.38 6.51-0.57 25.97-0.14zm-115 92.5c-1.65 0.65-4.8 2.43-7 3.94-2.2 1.51-5.67 4.51-7.72 6.66-2.04 2.14-4.82 6.15-6.18 8.9-1.36 2.75-3.16 7.92-4.02 11.5-1.17 4.91-1.55 12.27-1.57 30-0.01 19.48 0.29 24.61 1.77 30 0.98 3.58 3.08 8.75 4.68 11.5 1.6 2.75 5.2 7.25 8 10 2.8 2.75 8.24 6.64 12.07 8.65 3.83 2 10.57 4.43 14.97 5.39 6.36 1.4 10.66 1.63 21 1.17 7.6-0.35 15.29-1.29 18.5-2.26 3.03-0.92 7.64-2.75 10.25-4.06 2.61-1.32 6.6-4.08 8.85-6.14 2.26-2.06 5.43-5.77 7.04-8.25 1.62-2.48 3.9-7.42 5.07-11 1.86-5.71 2.17-9.46 2.54-31 0.33-19.68 0.1-25.97-1.16-32-0.87-4.13-2.88-10.2-4.48-13.5-1.76-3.63-5.03-7.98-8.28-11-2.95-2.75-7.38-6-9.85-7.22-2.46-1.23-8.08-3.14-12.48-4.26-6.2-1.58-11.03-2.03-21.5-1.98-9.79 0.05-15.42 0.58-20.5 1.92-3.85 1.03-8.35 2.39-10 3.04zm210.5-31.87c5.22-0.07 13.55 0.37 18.5 0.98 4.95 0.61 12.83 2.21 17.5 3.57 4.67 1.35 11.65 4.1 15.5 6.1 4.73 2.45 9.61 6.23 15.05 11.67 5.41 5.42 9.23 10.34 11.69 15.05 2 3.85 4.39 10.15 5.3 14 1.21 5.11 1.7 12.26 1.96 46l-141.5 0.5v13c0 9.38 0.45 14.32 1.62 17.75 0.9 2.61 3.03 6.77 4.74 9.25 1.71 2.48 4.8 6.19 6.87 8.25 2.07 2.06 7.03 5.31 11.02 7.23 3.99 1.91 10.51 4.16 14.5 5 4.1 0.86 12.35 1.52 19 1.53 6.46 0.01 15.69-0.67 20.5-1.5 4.81-0.83 11.11-2.41 14-3.51 2.89-1.1 7.5-3.55 10.25-5.44 2.75-1.89 6.35-5.51 8-8.04 1.65-2.53 3-4.57 3-4.54 0 0.03 5.17 2.04 11.5 4.47 6.33 2.42 11.61 4.89 11.75 5.48 0.14 0.59-0.99 3.43-2.5 6.32-1.51 2.88-5.67 8.2-9.25 11.81-4.96 5.01-8.75 7.68-16 11.26-5.22 2.59-12.88 5.55-17 6.58-4.13 1.03-12.45 2.4-18.5 3.04-6.47 0.69-15.53 0.89-22 0.5-6.05-0.37-14.04-1.29-17.75-2.05-3.71-0.77-10.24-2.72-14.5-4.34-4.26-1.62-11.13-5.15-15.25-7.83-4.13-2.68-9.97-7.58-13-10.89-3.03-3.31-6.96-8.45-8.74-11.42-1.79-2.98-4.48-8.79-8.72-20.41l-0.02-36c-0.02-27.39 0.31-37.32 1.36-41.5 0.76-3.02 2.61-8.2 4.11-11.5 1.49-3.3 4.58-8.48 6.86-11.5 2.28-3.02 6.74-7.64 9.9-10.26 3.16-2.62 8.67-6.3 12.25-8.18 3.58-1.89 10.55-4.58 15.5-5.99 4.95-1.41 12.15-2.96 16-3.44 3.85-0.48 11.28-0.93 16.5-1zm-33 32.54c-3.58 1.62-8.48 4.72-10.9 6.89-2.41 2.16-5.39 5.52-6.62 7.44-1.22 1.92-2.96 5.98-3.86 9-0.9 3.02-1.64 7.86-1.63 10.75l0.01 5.25 115.5 0.02c-1.04-10.48-2.35-16.22-3.59-19.52-1.55-4.13-3.83-7.58-7.33-11.07-3.06-3.06-7.87-6.4-12.08-8.4-3.85-1.83-10.38-3.92-14.5-4.64-4.13-0.73-13.58-1.3-21-1.26-7.42 0.03-16.65 0.63-20.5 1.33-3.85 0.7-9.92 2.6-13.5 4.21zm143.5-28.67c12.92 0 13.56 0.1 14.9 2.25 0.77 1.24 13.93 31.61 29.25 67.5 15.32 35.9 28.11 64.92 28.43 64.5 0.32-0.41 13.1-30.23 28.4-66.25 15.31-36.02 28.32-66.08 28.93-66.79 0.79-0.95 4.68-1.29 14.34-1.25 11.96 0.04 13.24 0.21 13.2 1.79-0.03 0.96-17.25 42.02-76.5 180.75h-17.63l-38.4-90c-21.12-49.5-38.41-90.56-38.41-91.25-0.01-0.94 3.35-1.25 13.49-1.25zm-415.12 132.22c2.82 0.43 6.81 1.91 8.87 3.28 2.06 1.38 4.85 3.96 6.19 5.75 1.35 1.79 3.16 5.27 4.03 7.75 0.86 2.48 1.57 6.08 1.56 8 0 1.92-0.8 5.74-1.77 8.47-0.98 2.78-3.52 6.76-5.76 9.03-2.57 2.6-5.97 4.72-9.5 5.92-3.85 1.3-7.15 1.71-11 1.35-3.03-0.27-6.85-1.18-8.5-2.01-1.65-0.84-4.54-2.81-6.42-4.39-1.88-1.58-4.47-5.12-5.74-7.87q-2.32-5-2.31-10.5c0.01-3.37 0.8-7.25 2.05-10 1.12-2.48 3.47-6 5.23-7.84 1.75-1.83 4.54-4.03 6.19-4.88 1.65-0.85 4.97-1.84 7.38-2.2 2.41-0.36 6.69-0.3 9.5 0.14z"/>
		<path id="Path 2" fill-rule="evenodd" class="s0" d="m563 303.52c16.87 0.24 29.77 0.92 35.5 1.86 4.95 0.81 13.27 2.39 18.5 3.5 5.23 1.1 12.2 2.94 15.5 4.08 3.3 1.14 10.05 4.08 15 6.52 4.95 2.45 12.04 6.94 15.75 9.98 3.71 3.05 8.78 8.13 11.26 11.29 2.48 3.16 6.25 9.13 8.37 13.25 2.13 4.13 5.04 11.1 6.47 15.5 1.43 4.4 3.33 11.15 4.21 15 0.88 3.85 2.31 11.73 3.18 17.5 1.33 8.82 1.69 27.4 2.26 116 0.65 101.1 0.77 105.9 2.73 115 1.12 5.23 3.61 14.23 5.53 20 1.92 5.77 5.12 13.76 7.12 17.75 1.99 3.99 3.62 7.48 3.62 7.75 0 0.27-14.85 0.5-33 0.5-30.6 0-33.03-0.13-33.43-1.75-0.23-0.96-1.61-5.12-3.06-9.25-1.44-4.12-3.45-11.1-4.46-15.5-1.01-4.4-2.1-10.14-2.44-12.75-0.34-2.61-0.84-4.75-1.11-4.75-0.27 0-3.54 2.41-7.25 5.35-3.71 2.94-11.7 8.61-17.75 12.59-6.05 3.99-17.75 10.53-26 14.55-8.25 4.01-19.27 8.68-24.5 10.38-5.23 1.69-13.33 3.94-18 5-4.67 1.06-14.13 2.71-21 3.67-9.63 1.35-15.94 1.61-27.5 1.13-8.25-0.34-17.93-1.11-21.5-1.71-3.57-0.6-11-2.23-16.5-3.64-5.5-1.4-12.25-3.43-15-4.52-2.75-1.08-8.15-3.56-12-5.5-3.85-1.94-10.15-5.68-14-8.31-3.85-2.62-10.03-7.86-13.73-11.63-3.7-3.77-7.89-8.44-9.32-10.36-1.42-1.92-4.1-6.2-5.95-9.5-1.85-3.3-4.27-8.48-5.37-11.5-1.11-3.02-2.7-8.2-3.53-11.5-0.84-3.3-1.99-10.95-2.57-17-0.71-7.54-0.72-14.15-0.03-21 0.56-5.5 1.95-13.6 3.09-18 1.13-4.4 3.64-11.37 5.56-15.5 1.92-4.12 5.44-10.42 7.82-14 2.38-3.58 8.09-10.12 12.68-14.54 4.59-4.43 11.73-10.33 15.85-13.11 4.13-2.79 10.76-6.71 14.75-8.71 3.99-2 12.31-5.17 18.5-7.04 6.19-1.87 16.65-4.61 23.25-6.09 6.6-1.47 19.88-3.96 29.5-5.53 9.63-1.56 25.38-4.02 35-5.46 9.63-1.44 23.8-3.75 31.5-5.12 7.7-1.37 19.17-3.62 25.5-4.99 6.33-1.38 16.4-3.95 33.29-8.91l-0.54-16c-0.4-11.87-1.09-18.07-2.69-24-1.18-4.4-3.81-11.1-5.85-14.89-2.04-3.79-6.19-9.42-9.21-12.51-3.02-3.1-8.2-7.28-11.5-9.3-3.3-2.02-10.73-5.23-16.5-7.15-6.43-2.13-14.57-3.95-21-4.69-6.56-0.76-17.06-1.02-28-0.68-9.62 0.3-20.2 1.06-23.5 1.7-3.3 0.64-8.7 1.97-12 2.96-3.3 1-9.37 3.51-13.5 5.59-4.32 2.17-9.98 6.15-13.34 9.37-3.21 3.08-7.9 8.75-10.42 12.6-2.53 3.85-6.03 10.15-7.78 14-1.76 3.85-4.49 10.75-6.08 15.34-2.7 7.82-3.04 8.31-5.38 7.86-1.37-0.27-14.65-2.18-29.5-4.26-14.85-2.07-27.23-3.93-27.5-4.14-0.27-0.21 0.11-2.95 0.86-6.09 0.75-3.14 2.49-9.31 3.86-13.71 1.38-4.4 4.58-12.27 7.13-17.5 2.54-5.23 6.62-12.42 9.06-16 2.44-3.57 7.18-9.58 10.52-13.34 3.34-3.77 9.6-9.62 13.91-13 4.31-3.39 11.51-8.3 16-10.92 4.49-2.62 12.89-6.59 18.66-8.83 5.77-2.23 14.55-5.1 19.5-6.38 4.95-1.28 13.5-3.09 19-4.02 5.5-0.94 13.83-2.08 18.5-2.54 4.67-0.46 20.42-0.66 35-0.45zm42.5 199.96c-7.7 1.9-27.5 5.91-44 8.93-16.5 3.02-36.08 7.06-43.5 8.97-7.43 1.91-18.23 5.11-24 7.11-5.77 2-14.32 5.52-19 7.82-5.63 2.77-10.37 6.04-14.05 9.68-3.04 3.03-6.72 7.53-8.17 10.01-1.45 2.48-3.34 7.2-4.21 10.5-0.89 3.38-1.57 9.93-1.56 15 0.01 4.95 0.71 11.92 1.56 15.5 0.85 3.58 2.86 8.98 4.47 12 1.61 3.02 4.85 7.46 7.19 9.86 2.35 2.4 6.07 5.61 8.27 7.13 2.2 1.52 5.8 3.54 8 4.48 2.2 0.94 6.02 2.33 8.5 3.08 2.48 0.75 8.55 2.06 13.5 2.92 4.95 0.85 14.4 1.54 21 1.52 6.6-0.01 16.05-0.46 21-0.98 4.95-0.53 13.73-2.14 19.5-3.58 5.77-1.44 14.1-4.29 18.5-6.33 4.4-2.04 10.7-5.53 14-7.75 3.3-2.22 8.92-6.93 12.5-10.46 3.58-3.54 8.75-10.02 11.49-14.41 2.75-4.39 6.51-11.81 8.36-16.48 1.85-4.67 4.42-13.23 5.71-19 1.28-5.77 2.81-14.89 3.39-20.25 0.58-5.36 1.05-17.4 1.05-26.75 0-9.35-0.34-16.97-0.75-16.93-0.41 0.05-3.9 1.18-7.75 2.53-3.85 1.35-13.3 3.99-21 5.88z"/>
	</g>
</svg>